<?xml version="1.0" encoding="UTF-8" standalone="no"?>
<svg
   xmlns:dc="http://purl.org/dc/elements/1.1/"
   xmlns:cc="http://creativecommons.org/ns#"
   xmlns:rdf="http://www.w3.org/1999/02/22-rdf-syntax-ns#"
   xmlns:svg="http://www.w3.org/2000/svg"
   xmlns="http://www.w3.org/2000/svg"
   viewBox="0 0 353.33334 361.33334"
   height="361.33334"
   width="353.33334"
   xml:space="preserve"
   id="svg2"
   version="1.1"><metadata
     id="metadata8"><rdf:RDF><cc:Work
         rdf:about=""><dc:format>image/svg+xml</dc:format><dc:type
           rdf:resource="http://purl.org/dc/dcmitype/StillImage" /></cc:Work></rdf:RDF></metadata><defs
     id="defs6" /><g
     transform="matrix(1.3333333,0,0,-1.3333333,0,361.33333)"
     id="g10"><g
       transform="scale(0.1)"
       id="g12"><path
         id="path14"
         style="fill:#1e497b;fill-opacity:1;fill-rule:evenodd;stroke:none"
         d="m 1543.48,1266.48 -20.51,42.5 c 83.36,41.33 149.18,100.51 197.5,177.5 48.36,77 73.01,162.19 74.02,255.51 -1.01,93.32 -25.66,178.52 -74.02,255.51 -48.32,76.99 -114.14,136.17 -197.5,177.5 l 20.51,42.5 c 91.68,-45.66 164.02,-110.66 216.99,-195 53.01,-84.69 80,-178.16 81.01,-280.51 -1.01,-102.34 -28,-195.82 -81.01,-280.51 -52.97,-84.33 -125.31,-149.33 -216.99,-195 m -64.5,185.51 c 115.67,61.99 176.33,158.67 182,290 -5.67,131.33 -66.33,228.01 -182,290 l 20.51,42.5 c 132.66,-71.01 202.15,-181.83 208.48,-332.5 -6.33,-150.66 -75.82,-261.48 -208.48,-332.5 l -20.51,42.5 m -76.01,104.49 c 74.33,39.69 113.16,101.53 116.52,185.51 -3.36,83.99 -42.19,145.82 -116.52,185.51 l 20.51,42.5 c 91.32,-48.67 139.02,-124.69 143,-228.01 -3.98,-103.32 -51.68,-179.33 -143,-228.01 l -20.51,42.5 m -178.99,0 -20.5,-42.5 c -91.33,48.68 -138.99,124.69 -143.01,228.01 4.02,103.32 51.68,179.34 143.01,228.01 l 20.5,-42.5 c -74.33,-39.69 -113.16,-101.52 -116.48,-185.51 3.32,-83.98 42.15,-145.82 116.48,-185.51 m -96.01,-146.99 c -132.97,71.02 -202.661,181.84 -208.99,332.5 6.329,150.67 76.02,261.49 208.99,332.5 l 20.51,-42.5 c -115.98,-61.99 -176.64,-158.67 -182,-290 5.36,-131.33 66.02,-228.01 182,-290 l -20.51,-42.5 m -43.99,-143.01 c -91.679,45.67 -163.98,110.67 -216.992,195 -53.359,84.69 -80.508,178.17 -81.519,280.51 1.011,102.35 28.011,195.82 81.011,280.51 53.008,84.34 125.36,149.34 217,195 l 20.5,-42.5 c -83.32,-41.33 -149.179,-100.51 -197.5,-177.5 -48.32,-76.99 -73,-162.19 -73.98,-255.51 0.98,-93.32 25.66,-178.51 73.98,-255.51 48.321,-76.99 114.34,-136.17 198.01,-177.5 l -20.51,-42.5 m 1095,697.5 c -0.35,0 -0.5,0 -0.5,0 -2.35,84.69 -31.49,155.16 -87.5,211.53 -56.33,56.33 -127,85.66 -212,87.97 -18.98,-0.32 -37.65,-2.15 -56.01,-5.47 0,3.63 0,7.5 0,11.48 -2.97,124.65 -45.98,228.52 -128.99,311.49 -82.65,83 -186.48,126.01 -311.48,129.02 -197.03,-11.33 -333.52,-104.02 -409.531,-278.01 -40.309,13.01 -82.809,19.49 -127.5,19.49 -118.629,-3 -217.5,-43.98 -296.489,-123 -78.98,-78.64 -120,-177.5 -123,-296.49 0,-23.32 1.829,-46.17 5.5,-68.51 -114.64,-7 -209.839,-49.65 -285.5,-127.97 -75.6714,-78.01 -114.8511,-175 -117.4995,-291.02 3,-118.98 44.0195,-218.01 122.9995,-296.99 78.989,-78.67 177.86,-119.49 296.489,-122.5 h 777.501 l 77.03,538.98 c -41.68,9.03 -64.18,35 -67.5,78.01 4.34,48.01 30.47,74.18 78.48,78.52 48,-4.34 74.18,-30.51 78.51,-78.52 -3.36,-43.01 -25.86,-68.98 -67.5,-78.01 L 1401.48,1125 h 777.5 c 118.99,3.01 217.86,43.83 296.49,122.5 79.02,78.98 120,178.01 123.01,296.99 -3.01,118.99 -43.99,217.85 -123.01,296.49 -78.63,79.02 -177.5,120 -296.49,123" /><path
         id="path16"
         style="fill:#002a46;fill-opacity:1;fill-rule:nonzero;stroke:none"
         d="m -0.0390625,511.988 v 358.91 H 147.461 c 45.629,0 81.879,-16.25 108.75,-48.75 26.949,-32.5 40.469,-76.168 40.469,-130.937 0,-54.691 -13.828,-98.242 -41.41,-130.621 -27.61,-32.43 -64.84,-48.602 -111.719,-48.602 z M 48.5508,553.551 h 88.9102 c 34.769,0 61.641,11.918 80.629,35.789 19.058,23.941 28.59,57.89 28.59,101.871 0,44.059 -9.141,78.051 -27.34,102.027 -18.25,24.063 -44.141,36.102 -77.66,36.102 H 48.5508 Z M 515.16,502.148 c -52.109,0 -94.301,17.383 -126.57,52.192 -32.18,34.762 -48.281,80.39 -48.281,136.871 0,56.641 16.101,102.379 48.281,137.187 32.269,34.762 74.461,52.192 126.57,52.192 52.379,0 94.61,-17.43 126.719,-52.192 32.18,-34.808 48.281,-80.546 48.281,-137.187 0,-56.481 -16.101,-102.109 -48.281,-136.871 -32.109,-34.809 -74.34,-52.192 -126.719,-52.192 z m 0,43.122 c 37.379,0 67.539,13.359 90.461,40.16 23.008,26.871 34.539,62.109 34.539,105.781 0,43.75 -11.531,79.059 -34.539,105.937 -22.922,26.954 -53.082,40.473 -90.461,40.473 -37.308,0 -67.461,-13.519 -90.469,-40.473 -22.929,-26.878 -34.382,-62.187 -34.382,-105.937 0,-43.672 11.453,-78.91 34.382,-105.781 23.008,-26.801 53.161,-40.16 90.469,-40.16 z" /><path
         id="path18"
         style="fill:#002a46;fill-opacity:1;fill-rule:nonzero;stroke:none"
         d="M 793.199,511.988 H 746.02 v 358.91 h 69.839 L 918.52,565.43 1020.23,870.898 h 69.85 v -358.91 h -47.19 v 303.75 L 941.641,511.988 H 894.77 L 793.199,814.801 Z" /><path
         id="path20"
         style="fill:#002a46;fill-opacity:1;fill-rule:nonzero;stroke:none"
         d="m 1320.82,502.148 c -52.11,0 -94.3,17.383 -126.56,52.192 -32.19,34.762 -48.28,80.39 -48.28,136.871 0,56.641 16.09,102.379 48.28,137.187 32.26,34.762 74.45,52.192 126.56,52.192 52.38,0 94.61,-17.43 126.72,-52.192 32.19,-34.808 48.28,-80.546 48.28,-137.187 0,-56.481 -16.09,-102.109 -48.28,-136.871 -32.11,-34.809 -74.34,-52.192 -126.72,-52.192 z m 0,43.122 c 37.38,0 67.54,13.359 90.47,40.16 23.01,26.871 34.53,62.109 34.53,105.781 0,43.75 -11.52,79.059 -34.53,105.937 -22.93,26.954 -53.09,40.473 -90.47,40.473 -37.3,0 -67.46,-13.519 -90.47,-40.473 -22.93,-26.878 -34.37,-62.187 -34.37,-105.937 0,-43.672 11.44,-78.91 34.37,-105.781 23.01,-26.801 53.17,-40.16 90.47,-40.16 z" /><path
         id="path22"
         style="fill:#002a46;fill-opacity:1;fill-rule:nonzero;stroke:none"
         d="M 1643.55,511.988 V 827.93 h -121.4 v 42.968 H 1813.4 V 827.93 H 1692.15 V 511.988 Z" /><path
         id="path24"
         style="fill:#002a46;fill-opacity:1;fill-rule:nonzero;stroke:none"
         d="m 1866.25,511.988 h 48.5898 v 358.91 H 1866.25 Z" /><path
         id="path26"
         style="fill:#002a46;fill-opacity:1;fill-rule:nonzero;stroke:none"
         d="m 2300.08,644.02 c -6.25,-44.29 -23.24,-79.02 -50.94,-104.219 -27.73,-25.11 -62.81,-37.653 -105.31,-37.653 -49.49,0 -88.91,17.032 -118.28,51.09 -29.38,34.141 -44.07,80.16 -44.07,137.973 0,57.809 15.24,103.789 45.79,137.969 30.5,34.261 71.44,51.41 122.81,51.41 40.51,0 73.79,-10.43 99.84,-31.25 26.02,-20.86 41.64,-49.539 46.88,-86.102 h -46.88 c -4.49,23.75 -15.47,42.071 -32.97,55 -17.5,12.891 -40,19.383 -67.5,19.383 -36.05,0 -64.76,-13.242 -86.09,-39.691 -21.25,-26.371 -31.88,-61.95 -31.88,-106.719 0,-47.5 9.89,-83.711 29.69,-108.59 19.77,-24.922 48.48,-37.351 86.1,-37.351 27.81,0 50.85,8.519 69.21,25.628 18.44,17.192 30.67,41.563 36.72,73.122 z" /><path
         id="path28"
         style="fill:#002a46;fill-opacity:1;fill-rule:nonzero;stroke:none"
         d="m 2327.81,511.988 135.63,358.91 h 55.31 l 128.91,-358.91 h -52.19 l -36.41,104.063 h -143.59 l -37.5,-104.063 z m 160.94,306.102 -57.66,-159.07 h 113.13 z" /><path
         id="path30"
         style="fill:#002a46;fill-opacity:1;fill-rule:nonzero;stroke:none"
         d="M 191.328,6.98828 V 228.09 H 106.48 v 30.148 H 310.391 V 228.09 h -85 V 6.98828 Z m 154.262,0 V 258.238 H 529.18 V 228.09 H 379.488 v -76.719 h 136.723 v -30 H 379.488 V 37.1484 H 531.051 V 6.98828 Z" /><path
         id="path32"
         style="fill:#002a46;fill-opacity:1;fill-rule:nonzero;stroke:none"
         d="M 787.66,99.4883 C 783.281,68.4414 771.328,44.1016 751.879,26.5195 732.5,8.91016 707.969,0.121094 678.281,0.121094 c -34.691,0 -62.34,11.910206 -82.972,35.777306 -20.539,23.9414 -30.778,56.1329 -30.778,96.5626 0,40.391 10.668,72.578 32.028,96.559 21.453,24.07 50.16,36.101 86.101,36.101 28.43,0 51.75,-7.312 70,-21.883 18.199,-14.609 29.141,-34.758 32.809,-60.468 H 752.66 c -3.25,16.64 -11.019,29.531 -23.281,38.601 -12.188,9.059 -27.93,13.59 -47.188,13.59 -25.242,0 -45.281,-9.301 -60.16,-27.813 -14.922,-18.437 -22.34,-43.359 -22.34,-74.687 0,-33.3594 6.868,-58.711 20.618,-76.0899 13.832,-17.4219 33.953,-26.1016 60.312,-26.1016 19.457,0 35.629,5.9805 48.438,17.9688 12.89,12.0703 21.492,29.1406 25.781,51.25 z" /><path
         id="path34"
         style="fill:#002a46;fill-opacity:1;fill-rule:nonzero;stroke:none"
         d="M 829.18,6.98828 V 258.238 h 33.91 V 155.121 h 131.09 v 103.117 h 34.06 V 6.98828 H 994.18 V 125.121 H 863.09 V 6.98828 Z" /><path
         id="path36"
         style="fill:#002a46;fill-opacity:1;fill-rule:nonzero;stroke:none"
         d="M 1114.61,6.98828 H 1081.8 V 258.238 h 40.78 L 1248.36,54.0195 V 258.238 h 32.81 V 6.98828 h -37.19 L 1114.61,211.84 Z" /><path
         id="path38"
         style="fill:#002a46;fill-opacity:1;fill-rule:nonzero;stroke:none"
         d="m 1444.1,0.121094 c -36.48,0 -66.01,12.109406 -88.59,36.398406 -22.5,24.3789 -33.75,56.3321 -33.75,95.9415 0,39.57 11.25,71.559 33.75,95.937 22.58,24.454 52.11,36.723 88.59,36.723 36.64,0 66.25,-12.269 88.75,-36.723 22.5,-24.378 33.75,-56.367 33.75,-95.937 0,-39.6094 -11.25,-71.5626 -33.75,-95.9415 -22.5,-24.289 -52.11,-36.398406 -88.75,-36.398406 z m 0,30.148406 c 26.13,0 47.23,9.3789 63.28,28.1289 16.14,18.8321 24.22,43.5116 24.22,74.0626 0,30.629 -8.08,55.348 -24.22,74.219 -16.05,18.832 -37.15,28.281 -63.28,28.281 -26.17,0 -47.26,-9.449 -63.28,-28.281 -16.05,-18.871 -24.06,-43.59 -24.06,-74.219 0,-30.551 8.01,-55.2305 24.06,-74.0626 16.02,-18.75 37.11,-28.1289 63.28,-28.1289 z" /><path
         id="path40"
         style="fill:#002a46;fill-opacity:1;fill-rule:nonzero;stroke:none"
         d="M 1606.8,6.98828 V 258.238 h 33.9 V 37.1484 h 127.35 V 6.98828 Z" /><path
         id="path42"
         style="fill:#002a46;fill-opacity:1;fill-rule:nonzero;stroke:none"
         d="m 1911.02,0.121094 c -36.49,0 -66.02,12.109406 -88.6,36.398406 -22.5,24.3789 -33.75,56.3321 -33.75,95.9415 0,39.57 11.25,71.559 33.75,95.937 22.58,24.454 52.11,36.723 88.6,36.723 36.64,0 66.25,-12.269 88.75,-36.723 22.5,-24.378 33.75,-56.367 33.75,-95.937 0,-39.6094 -11.25,-71.5626 -33.75,-95.9415 -22.5,-24.289 -52.11,-36.398406 -88.75,-36.398406 z m 0,30.148406 c 26.13,0 47.22,9.3789 63.28,28.1289 16.13,18.8321 24.22,43.5116 24.22,74.0626 0,30.629 -8.09,55.348 -24.22,74.219 -16.06,18.832 -37.15,28.281 -63.28,28.281 -26.18,0 -47.27,-9.449 -63.29,-28.281 -16.05,-18.871 -24.06,-43.59 -24.06,-74.219 0,-30.551 8.01,-55.2305 24.06,-74.0626 16.02,-18.75 37.11,-28.1289 63.29,-28.1289 z" /><path
         id="path44"
         style="fill:#002a46;fill-opacity:1;fill-rule:nonzero;stroke:none"
         d="m 2180.59,0.121094 c -34.81,0 -62.97,12.109406 -84.54,36.398406 -21.56,24.3789 -32.34,56.3321 -32.34,95.9415 0,39.57 10.98,71.559 32.97,95.937 21.95,24.454 50.78,36.723 86.41,36.723 27.38,0 50.97,-7.742 70.78,-23.133 19.76,-15.429 31.4,-35.148 34.84,-59.218 h -32.81 c -3.24,16.64 -11.37,29.531 -24.38,38.601 -12.93,9.059 -29.76,13.59 -50.47,13.59 -24.6,0 -44.49,-9.492 -59.68,-28.441 -15.12,-18.981 -22.66,-43.821 -22.66,-74.532 0,-32.7263 7.34,-58.0388 22.03,-75.9372 14.69,-17.9297 35.31,-26.8711 61.88,-26.8711 25.93,0 46.87,9.4492 62.81,28.4414 2.5,2.8906 4.77,6.0078 6.87,9.3672 2.7,4.4609 5,10.6719 6.88,18.6015 1.87,8 2.81,15.6212 2.81,22.8082 v 2.973 h -78.75 v 28.75 h 110 V 7.14844 h -21.25 l -8.12,31.56246 -1.88,-2.1914 c -20.62,-24.289 -47.77,-36.398406 -81.4,-36.398406 z" /><path
         id="path46"
         style="fill:#002a46;fill-opacity:1;fill-rule:nonzero;stroke:none"
         d="m 2418.91,107.461 -94.85,150.777 h 39.85 l 72.03,-121.867 72.34,121.867 h 39.22 l -94.69,-151.25 V 6.98828 h -33.9 z" /></g></g></svg>