<?xml version="1.0" encoding="UTF-8"?>
<svg width="200px" height="86px" viewBox="0 0 200 86" version="1.1" xmlns="http://www.w3.org/2000/svg" xmlns:xlink="http://www.w3.org/1999/xlink">
    <!-- Generator: sketchtool 50.2 (55047) - http://www.bohemiancoding.com/sketch -->
    <title>6F8DB82A-8384-4C34-B662-FBAC0E0C77EA</title>
    <desc>Created with sketchtool.</desc>
    <defs>
        <polygon id="path-1" points="0.262294133 0.0866225166 58.7919751 0.0866225166 58.7919751 59.3912185 0.262294133 59.3912185"></polygon>
    </defs>
    <g id="Base" stroke="none" stroke-width="1" fill="none" fill-rule="evenodd">
        <g id="marca" transform="translate(-1520.000000, -736.000000)">
            <g id="malls" transform="translate(50.000000, 388.000000)">
                <g id="vivo-sanfernando" transform="translate(1470.000000, 348.000000)">
                    <path d="M34.21875,73.9453125 C35.2812553,73.9453125 36.3046826,74.2109348 37.2890625,74.7421875 L37.2890625,76.6171875 C36.1588485,75.9348924 35.1562544,75.59375 34.28125,75.59375 C33.7499973,75.59375 33.3346369,75.6966136 33.0351562,75.9023438 C32.7356756,76.1080739 32.5859375,76.3828108 32.5859375,76.7265625 C32.5859375,77.1380229 32.8645805,77.5182274 33.421875,77.8671875 C33.5781258,77.9713547 34.1796823,78.2630184 35.2265625,78.7421875 C36.1224003,79.1640646 36.7682272,79.6328099 37.1640625,80.1484375 C37.5598978,80.6640651 37.7578125,81.2838505 37.7578125,82.0078125 C37.7578125,82.9453172 37.4205763,83.70182 36.7460938,84.2773438 C36.0716112,84.8528675 35.197922,85.140625 34.125,85.140625 C33.4270798,85.140625 32.8268254,85.0638029 32.3242188,84.9101562 C31.8216121,84.7565096 31.2578156,84.4921894 30.6328125,84.1171875 L30.6328125,82.0390625 C31.799485,83.0078173 32.8984323,83.4921875 33.9296875,83.4921875 C34.4453151,83.4921875 34.8619776,83.3802095 35.1796875,83.15625 C35.4973974,82.9322905 35.65625,82.6354185 35.65625,82.265625 C35.65625,81.7604141 35.3802111,81.3489599 34.828125,81.03125 C34.3697894,80.7812488 33.7786495,80.4817726 33.0546875,80.1328125 C32.1953082,79.7421855 31.5533875,79.2864609 31.1289062,78.765625 C30.704425,78.2447891 30.4921875,77.6406284 30.4921875,76.953125 C30.4921875,76.0364537 30.8333299,75.3059923 31.515625,74.7617188 C32.1979201,74.2174452 33.0989527,73.9453125 34.21875,73.9453125 Z M45.8125,74.0859375 L50.6328125,85 L48.40625,85 L47.2734375,82.34375 L42.421875,82.34375 L41.3671875,85 L39.15625,85 L43.65625,74.0859375 L45.8125,74.0859375 Z M43.0625,80.7421875 L46.5859375,80.7421875 L44.7421875,76.421875 L43.0625,80.7421875 Z M54.765625,74.0859375 L61.25,81.703125 L61.25,74.0859375 L63.3125,74.0859375 L63.3125,85 L61.5,85 L54.9765625,77.2578125 L54.9765625,85 L52.9140625,85 L52.9140625,74.0859375 L54.765625,74.0859375 Z M78.8125,74.0859375 L78.8125,75.734375 L74.265625,75.734375 L74.265625,78.5546875 L78.8125,78.5546875 L78.8125,80.21875 L74.265625,80.21875 L74.265625,85 L72.15625,85 L72.15625,74.0859375 L78.8125,74.0859375 Z M88.7890625,74.0859375 L88.7890625,75.734375 L83.84375,75.734375 L83.84375,78.6015625 L88.578125,78.6015625 L88.578125,80.25 L83.84375,80.25 L83.84375,83.3515625 L88.8984375,83.3515625 L88.8984375,85 L81.734375,85 L81.734375,74.0859375 L88.7890625,74.0859375 Z M95.796875,74.0859375 C96.8229218,74.0859375 97.6588509,74.3697888 98.3046875,74.9375 C98.9505241,75.5052112 99.2734375,76.2447871 99.2734375,77.15625 C99.2734375,77.7760448 99.1132829,78.3164039 98.7929688,78.7773438 C98.4726546,79.2382836 97.997399,79.6015612 97.3671875,79.8671875 C97.7161476,80.0546884 98.0260403,80.3098942 98.296875,80.6328125 C98.5677097,80.9557308 98.9036438,81.4999962 99.3046875,82.265625 C99.9713575,83.5885483 100.466144,84.4999975 100.789062,85 L98.4375,85 C98.2760409,84.7604155 98.057293,84.3776068 97.78125,83.8515625 C97.1770803,82.6900984 96.7343764,81.9075541 96.453125,81.5039062 C96.1718736,81.1002584 95.901043,80.8138029 95.640625,80.6445312 C95.380207,80.4752596 95.0807309,80.390625 94.7421875,80.390625 L93.9765625,80.390625 L93.9765625,85 L91.8671875,85 L91.8671875,74.0859375 L95.796875,74.0859375 Z M95.3203125,78.7421875 C95.8723986,78.7421875 96.305988,78.604168 96.6210938,78.328125 C96.9361995,78.052082 97.09375,77.6744816 97.09375,77.1953125 C97.09375,76.69531 96.9375016,76.3216158 96.625,76.0742188 C96.3124984,75.8268217 95.8671904,75.703125 95.2890625,75.703125 L93.9765625,75.703125 L93.9765625,78.7421875 L95.3203125,78.7421875 Z M105.023438,74.0859375 L111.507812,81.703125 L111.507812,74.0859375 L113.570312,74.0859375 L113.570312,85 L111.757812,85 L105.234375,77.2578125 L105.234375,85 L103.171875,85 L103.171875,74.0859375 L105.023438,74.0859375 Z M122.5,74.0859375 L127.320312,85 L125.09375,85 L123.960938,82.34375 L119.109375,82.34375 L118.054688,85 L115.84375,85 L120.34375,74.0859375 L122.5,74.0859375 Z M119.75,80.7421875 L123.273438,80.7421875 L121.429688,76.421875 L119.75,80.7421875 Z M131.453125,74.0859375 L137.9375,81.703125 L137.9375,74.0859375 L140,74.0859375 L140,85 L138.1875,85 L131.664062,77.2578125 L131.664062,85 L129.601562,85 L129.601562,74.0859375 L131.453125,74.0859375 Z M147.96875,74.0859375 C149.104172,74.0859375 150.114579,74.317706 151,74.78125 C151.885421,75.244794 152.572914,75.8958291 153.0625,76.734375 C153.552086,77.5729209 153.796875,78.5156198 153.796875,79.5625 C153.796875,80.6302137 153.550784,81.5768188 153.058594,82.4023438 C152.566404,83.2278687 151.867192,83.8671852 150.960938,84.3203125 C150.054683,84.7734398 149.015631,85 147.84375,85 L143.398438,85 L143.398438,74.0859375 L147.96875,74.0859375 Z M147.75,83.3515625 C148.916673,83.3515625 149.852861,83.0013056 150.558594,82.3007812 C151.264326,81.6002569 151.617188,80.6822973 151.617188,79.546875 C151.617188,78.3697858 151.261722,77.4401076 150.550781,76.7578125 C149.83984,76.0755174 148.882819,75.734375 147.679688,75.734375 L145.507812,75.734375 L145.507812,83.3515625 L147.75,83.3515625 Z M162.359375,73.9453125 C163.489589,73.9453125 164.506506,74.1783831 165.410156,74.6445312 C166.313807,75.1106794 167.033851,75.7825477 167.570312,76.6601562 C168.106774,77.5377648 168.375,78.4999948 168.375,79.546875 C168.375,80.5677134 168.113284,81.5143186 167.589844,82.3867188 C167.066404,83.2591189 166.347661,83.9361955 165.433594,84.4179688 C164.519527,84.899742 163.489589,85.140625 162.34375,85.140625 C161.213536,85.140625 160.186203,84.8958358 159.261719,84.40625 C158.337235,83.9166642 157.61719,83.2434939 157.101562,82.3867188 C156.585935,81.5299436 156.328125,80.5833385 156.328125,79.546875 C156.328125,78.54687 156.585935,77.6067752 157.101562,76.7265625 C157.61719,75.8463498 158.32812,75.1627629 159.234375,74.6757812 C160.14063,74.1887996 161.182286,73.9453125 162.359375,73.9453125 Z M158.507812,79.546875 C158.507812,80.270837 158.671873,80.9218721 159,81.5 C159.328127,82.0781279 159.785153,82.5260401 160.371094,82.84375 C160.957034,83.1614599 161.619788,83.3203125 162.359375,83.3203125 C163.479172,83.3203125 164.399736,82.9687535 165.121094,82.265625 C165.842452,81.5624965 166.203125,80.6562555 166.203125,79.546875 C166.203125,78.822913 166.040366,78.1705758 165.714844,77.5898438 C165.389321,77.0091117 164.930993,76.5598974 164.339844,76.2421875 C163.748695,75.9244776 163.083337,75.765625 162.34375,75.765625 C161.604163,75.765625 160.938805,75.9257796 160.347656,76.2460938 C159.756507,76.5664079 159.302085,77.01432 158.984375,77.5898438 C158.666665,78.1653675 158.507812,78.8177047 158.507812,79.546875 Z" id="extension" fill="#FFFFFF"></path>
                    <g id="vivo/color-light">
                        <g id="vivo-color-light">
                            <polygon id="Fill-1" fill="#FFFFFF" points="53.5845882 2.46739073 35.9226275 40.8244768 18.3736078 2.70619868 18.2594902 2.46739073 9.49988235 2.46739073 35.9175294 59.9132185 62.3485098 2.46739073"></polygon>
                            <polygon id="Fill-2" fill="#0D7ABB" points="9.47576471 2.46703311 7.84313725e-05 23.0597483 8.73419608 23.0597483 18.2377255 2.46703311"></polygon>
                            <polygon id="Fill-3" fill="#FFFFFF" points="135.54 2.46739073 117.879216 40.8244768 100.329412 2.70619868 100.215294 2.46739073 91.4556863 2.46739073 117.872941 59.9132185 144.304314 2.46739073"></polygon>
                            <polygon id="Fill-4" fill="#1CA543" points="90.6899608 23.0597086 81.9558431 23.0597086 91.4319216 2.46699338 100.19349 2.46699338"></polygon>
                            <polygon id="Fill-5" fill="#FFFFFF" points="68.1117647 57.7513907 76.8615686 57.7513907 76.8615686 19.2449007 68.1117647 19.2449007"></polygon>
                            <g id="Group-13" transform="translate(65.490196, 0.310728)">
                                <path d="M104.817216,36.6622649 C101.050941,36.6622649 97.9870196,33.5561722 97.9870196,29.7392185 C97.9870196,25.9202781 101.050941,22.8169669 104.817216,22.8169669 C108.583882,22.8169669 111.653294,25.9202781 111.653294,29.7392185 C111.653294,33.5561722 108.583882,36.6622649 104.817216,36.6622649" id="Fill-6" fill="#DD182B"></path>
                                <path d="M6.99705882,16.0378411 C3.23078431,16.0378411 0.166862745,12.9317483 0.166862745,9.11439735 C0.166862745,5.2958543 3.23078431,2.19095364 6.99705882,2.19095364 C10.7641176,2.19095364 13.8343137,5.2958543 13.8343137,9.11439735 C13.8343137,12.9317483 10.7641176,16.0378411 6.99705882,16.0378411" id="Fill-8" fill="#F4B124"></path>
                                <g id="Group-12" transform="translate(75.294118, 0.000000)">
                                    <mask id="mask-2" fill="white">
                                        <use xlink:href="#path-1"></use>
                                    </mask>
                                    <g id="Clip-11"></g>
                                    <path d="M29.5338039,59.3912185 L29.4385098,59.3912185 C13.3024314,59.3375762 0.213411765,45.9929404 0.262431373,29.6451258 C0.313411765,13.3453907 13.4420392,0.0865827815 29.5232157,0.0865827815 C37.4016471,0.112013245 44.7761569,3.22049007 50.2847843,8.8358543 C55.7938039,14.4516159 58.8149804,21.9079073 58.7918431,29.8290993 C58.7396863,46.1300265 45.6161569,59.3912185 29.5338039,59.3912185 Z M29.5232157,8.9924106 C18.2738039,8.9924106 9.09066667,18.2729404 9.05341176,29.6761192 C9.03811765,35.2155894 11.1506667,40.4292318 15.0036078,44.3590331 C18.8600784,48.2892318 23.9945882,50.461947 29.4608627,50.4814172 C40.7510588,50.4814172 49.9636078,41.2048609 49.998902,29.8016821 C50.0161569,24.2705563 47.9008627,19.0573113 44.0420392,15.1227417 C40.1808627,11.1877748 35.0487059,9.01188079 29.5918431,8.9924106 L29.5232157,8.9924106 Z" id="Fill-10" fill="#FFFFFF" mask="url(#mask-2)"></path>
                                </g>
                            </g>
                        </g>
                    </g>
                </g>
            </g>
        </g>
    </g>
</svg>